<svg width="179" height="48" viewBox="0 0 179 48" fill="none" xmlns="http://www.w3.org/2000/svg">
<path fill-rule="evenodd" clip-rule="evenodd" d="M28.743 2.53422C26.1407 1.88643 23.4271 1.82428 20.798 2.35216C17.4175 3.04523 14.3075 4.69548 11.8384 7.10623C9.36931 9.517 7.64504 12.5867 6.87135 15.9496C6.09768 19.3126 6.30689 22.8273 7.47427 26.0746C8.64169 29.322 10.7181 32.1656 13.4559 34.2662C16.5818 36.554 19.2433 39.4162 21.298 42.7L22.6981 45.0281C22.8759 45.3238 23.1271 45.5685 23.4274 45.7384C23.7277 45.9082 24.0671 45.9975 24.4121 45.9975C24.7571 45.9975 25.0962 45.9082 25.3965 45.7384C25.6968 45.5685 25.9483 45.3238 26.1261 45.0281L27.4678 42.792C29.257 39.6468 31.6969 36.9194 34.6241 34.792C36.9192 33.2129 38.816 31.122 40.1648 28.6844C41.5136 26.2467 42.2774 23.5289 42.3961 20.7455C42.5148 17.9621 41.9853 15.189 40.8489 12.6453C39.7125 10.1016 38.0003 7.85703 35.8479 6.08823L35.8459 6.09808C33.7711 4.39925 31.3451 3.182 28.743 2.53422ZM15.0188 20.0003C15.0188 14.9096 19.1455 10.7829 24.2362 10.7829C29.3268 10.7829 33.4536 14.9097 33.4536 20.0003C33.4535 23.5549 31.4412 26.6397 28.4937 28.1775C26.9644 28.9754 25.4352 27.576 25.5202 25.8531L25.5824 24.5932L29.1506 26.2158C29.2117 26.2436 29.2788 26.2555 29.3457 26.2505C29.4126 26.2456 29.4772 26.2239 29.5336 26.1874C29.59 26.1509 29.6363 26.1008 29.6685 26.0417C29.7006 25.9826 29.7174 25.9164 29.7174 25.849V25.179C29.7156 25.0847 29.6927 24.992 29.6503 24.9079C29.608 24.8237 29.5473 24.7501 29.4729 24.6926L25.6602 21.5371L25.6988 20.0832C25.7046 19.9753 25.7066 19.681 25.7066 19.6135C25.7066 19.0004 25.6228 18.4989 25.4572 18.1231C25.1773 17.4865 24.7373 17.3914 24.5001 17.3914C23.746 17.3914 23.296 18.2221 23.2953 19.613C23.2953 19.6812 23.2973 19.9763 23.3031 20.0827L23.3412 21.5369L19.5285 24.6846C19.4537 24.742 19.3928 24.8157 19.3502 24.9C19.3076 24.9843 19.2846 25.0772 19.2827 25.1717V25.849C19.2828 25.9163 19.2997 25.9826 19.3318 26.0416C19.364 26.1007 19.4104 26.1508 19.4668 26.1872C19.5232 26.2236 19.5878 26.2453 19.6547 26.2502C19.7217 26.2551 19.7887 26.2431 19.8498 26.2153L23.4117 24.5932L23.4868 26.0844C23.5705 27.7442 22.1524 29.1347 20.6238 28.4828C17.3286 27.0777 15.0188 23.8087 15.0188 20.0003Z" fill="#0A0A0A"/>
<path d="M79.77 17.14L75.54 33.55C75.09 35.26 74.37 35.89 72.57 35.89C70.71 35.89 70.05 35.11 69.63 33.46L66.42 20.29H66.36L63.15 33.46C62.76 35.11 62.07 35.89 60.21 35.89C58.41 35.89 57.69 35.26 57.24 33.55L53.01 17.14C52.89 16.69 52.77 16.21 52.77 15.73C52.77 14.23 54 13.51 55.14 13.51C56.4 13.51 57.15 14.08 57.45 15.52L60.36 29.86H60.42L63.78 15.34C64.05 14.14 64.53 13.51 66.36 13.51C68.43 13.51 68.85 14.5 69.15 15.85L72.42 29.86H72.48L75.42 15.52C75.72 14.08 76.47 13.51 77.64 13.51C78.78 13.51 80.01 14.23 80.01 15.73C80.01 16.21 79.89 16.69 79.77 17.14ZM95.4502 23.92V31.27C95.4502 33.1 95.9002 33.52 95.9002 34.21C95.9002 35.2 94.9702 35.89 93.9202 35.89C92.0302 35.89 91.4002 34.69 91.3402 33.34C89.6302 35.23 87.6502 35.89 85.3402 35.89C82.8502 35.89 80.3902 34.18 80.3902 31.42C80.3902 27.79 83.1502 26.77 86.5102 26.38L89.1802 26.08C90.2302 25.96 91.0702 25.72 91.0702 24.46C91.0702 23.2 89.7802 22.66 88.3102 22.66C85.0702 22.66 84.9802 25.06 83.2402 25.06C82.1302 25.06 81.3802 24.28 81.3802 23.38C81.3802 21.64 83.8402 19.42 88.3402 19.42C92.5402 19.42 95.4502 20.77 95.4502 23.92ZM91.0702 29.83V28.12C90.5902 28.57 89.6902 28.72 89.1802 28.81L87.5902 29.05C85.7602 29.32 84.7702 29.89 84.7702 31.21C84.7702 32.2 85.7002 33.01 87.2002 33.01C89.6002 33.01 91.0702 31.45 91.0702 29.83ZM102.24 21.07L105.06 31.3H105.12L107.79 21.37C108.09 20.26 108.69 19.42 109.89 19.42C111.63 19.42 112.14 20.86 112.14 21.4C112.14 21.76 112.02 22.21 111.81 22.78L106.74 37.15C105.69 40.15 104.49 41.71 101.73 41.71C99.78 41.71 98.97 40.75 98.97 39.7C98.97 38.53 99.81 37.93 100.98 37.93H101.43C102 37.93 102.63 37.9 102.96 36.55L98.4 23.56C98.04 22.51 97.86 22.03 97.86 21.52C97.86 20.32 98.82 19.42 99.99 19.42C101.16 19.42 101.97 20.08 102.24 21.07ZM114.9 33.43V16.78C114.9 14.59 116.04 13.9 117.78 13.9H128.61C130.05 13.9 131.1 14.32 131.1 15.88C131.1 17.44 130.05 17.86 128.61 17.86H119.82V22.9H127.26C128.55 22.9 129.57 23.26 129.57 24.79C129.57 26.32 128.55 26.68 127.26 26.68H119.82V33.43C119.82 34.9 118.86 35.89 117.36 35.89C115.86 35.89 114.9 34.9 114.9 33.43ZM146.046 23.92V31.27C146.046 33.1 146.496 33.52 146.496 34.21C146.496 35.2 145.566 35.89 144.516 35.89C142.626 35.89 141.996 34.69 141.936 33.34C140.226 35.23 138.246 35.89 135.936 35.89C133.446 35.89 130.986 34.18 130.986 31.42C130.986 27.79 133.746 26.77 137.106 26.38L139.776 26.08C140.826 25.96 141.666 25.72 141.666 24.46C141.666 23.2 140.376 22.66 138.906 22.66C135.666 22.66 135.576 25.06 133.836 25.06C132.726 25.06 131.976 24.28 131.976 23.38C131.976 21.64 134.436 19.42 138.936 19.42C143.136 19.42 146.046 20.77 146.046 23.92ZM141.666 29.83V28.12C141.186 28.57 140.286 28.72 139.776 28.81L138.186 29.05C136.356 29.32 135.366 29.89 135.366 31.21C135.366 32.2 136.296 33.01 137.796 33.01C140.196 33.01 141.666 31.45 141.666 29.83ZM150.076 33.7V21.46C150.076 20.14 150.946 19.42 152.056 19.42C153.166 19.42 154.036 20.14 154.036 21.46V23.14H154.096C154.606 21.31 155.596 19.42 157.726 19.42C159.106 19.42 160.126 20.32 160.126 21.55C160.126 23.17 159.046 23.74 157.966 23.74H157.186C155.416 23.74 154.456 24.97 154.456 28.6V33.7C154.456 34.87 153.976 35.89 152.266 35.89C150.556 35.89 150.076 34.87 150.076 33.7ZM175.321 28.48H165.421C165.421 30.79 166.921 32.47 169.471 32.47C172.771 32.47 172.771 30.31 174.541 30.31C175.591 30.31 176.341 31.21 176.341 32.02C176.341 34.66 172.111 35.89 169.471 35.89C163.351 35.89 161.041 31.75 161.041 27.94C161.041 22.84 164.131 19.42 169.321 19.42C174.361 19.42 177.241 22.99 177.241 26.59C177.241 28.09 176.791 28.48 175.321 28.48ZM165.421 25.96H173.101C172.861 23.95 171.361 22.48 169.411 22.48C167.221 22.48 165.901 23.83 165.421 25.96Z" fill="#0A0A0A"/>
</svg>
