<svg width="179" height="48" viewBox="0 0 179 48" fill="none" xmlns="http://www.w3.org/2000/svg">
<path fill-rule="evenodd" clip-rule="evenodd" d="M28.742 2.53471C26.1398 1.88692 23.4262 1.82477 20.797 2.35264C17.4165 3.04572 14.3065 4.69597 11.8374 7.10672C9.36833 9.51749 7.64407 12.5872 6.87037 15.9501C6.0967 19.3131 6.30591 22.8278 7.47329 26.0751C8.64071 29.3225 10.7171 32.1661 13.455 34.2667C16.5808 36.5545 19.2423 39.4167 21.297 42.7005L22.6971 45.0286C22.8749 45.3243 23.1261 45.569 23.4264 45.7389C23.7268 45.9087 24.0661 45.998 24.4111 45.998C24.7561 45.998 25.0952 45.9087 25.3955 45.7389C25.6959 45.569 25.9473 45.3243 26.1251 45.0286L27.4668 42.7925C29.2561 39.6473 31.6959 36.9199 34.6231 34.7925C36.9183 33.2134 38.8151 31.1225 40.1639 28.6848C41.5127 26.2472 42.2765 23.5294 42.3952 20.746C42.5139 17.9625 41.9844 15.1895 40.848 12.6458C39.7116 10.1021 37.9994 7.85751 35.8469 6.08872L35.8449 6.09857C33.7701 4.39974 31.3441 3.18249 28.742 2.53471ZM15.0178 20.0007C15.0178 14.9101 19.1446 10.7833 24.2352 10.7833C29.3258 10.7834 33.4526 14.9101 33.4526 20.0007C33.4525 23.5554 31.4403 26.6401 28.4927 28.178C26.9634 28.9759 25.4342 27.5765 25.5193 25.8536L25.5814 24.5937L29.1496 26.2163C29.2107 26.244 29.2778 26.256 29.3447 26.251C29.4116 26.2461 29.4762 26.2244 29.5326 26.1879C29.589 26.1514 29.6354 26.1013 29.6675 26.0422C29.6996 25.9831 29.7164 25.9168 29.7165 25.8495V25.1794C29.7146 25.0852 29.6917 24.9925 29.6493 24.9084C29.607 24.8242 29.5464 24.7506 29.4719 24.6931L25.6592 21.5376L25.6978 20.0837C25.7036 19.9757 25.7056 19.6815 25.7056 19.614C25.7056 19.0008 25.6218 18.4994 25.4563 18.1236C25.1763 17.487 24.7364 17.3919 24.4991 17.3919C23.7451 17.3919 23.2951 18.2225 23.2943 19.6135C23.2943 19.6817 23.2963 19.9767 23.3021 20.0832L23.3402 21.5374L19.5275 24.6851C19.4527 24.7425 19.3918 24.8161 19.3492 24.9005C19.3067 24.9848 19.2836 25.0776 19.2817 25.1721V25.8495C19.2818 25.9168 19.2987 25.9831 19.3308 26.0421C19.363 26.1012 19.4094 26.1512 19.4658 26.1877C19.5223 26.2241 19.5869 26.2458 19.6538 26.2507C19.7207 26.2556 19.7877 26.2436 19.8488 26.2158L23.4107 24.5937L23.4859 26.0849C23.5695 27.7447 22.1515 29.1352 20.6228 28.4833C17.3277 27.0782 15.0179 23.8092 15.0178 20.0007Z" fill="white"/>
<path d="M79.77 17.14L75.54 33.55C75.09 35.26 74.37 35.89 72.57 35.89C70.71 35.89 70.05 35.11 69.63 33.46L66.42 20.29H66.36L63.15 33.46C62.76 35.11 62.07 35.89 60.21 35.89C58.41 35.89 57.69 35.26 57.24 33.55L53.01 17.14C52.89 16.69 52.77 16.21 52.77 15.73C52.77 14.23 54 13.51 55.14 13.51C56.4 13.51 57.15 14.08 57.45 15.52L60.36 29.86H60.42L63.78 15.34C64.05 14.14 64.53 13.51 66.36 13.51C68.43 13.51 68.85 14.5 69.15 15.85L72.42 29.86H72.48L75.42 15.52C75.72 14.08 76.47 13.51 77.64 13.51C78.78 13.51 80.01 14.23 80.01 15.73C80.01 16.21 79.89 16.69 79.77 17.14ZM95.4502 23.92V31.27C95.4502 33.1 95.9002 33.52 95.9002 34.21C95.9002 35.2 94.9702 35.89 93.9202 35.89C92.0302 35.89 91.4002 34.69 91.3402 33.34C89.6302 35.23 87.6502 35.89 85.3402 35.89C82.8502 35.89 80.3902 34.18 80.3902 31.42C80.3902 27.79 83.1502 26.77 86.5102 26.38L89.1802 26.08C90.2302 25.96 91.0702 25.72 91.0702 24.46C91.0702 23.2 89.7802 22.66 88.3102 22.66C85.0702 22.66 84.9802 25.06 83.2402 25.06C82.1302 25.06 81.3802 24.28 81.3802 23.38C81.3802 21.64 83.8402 19.42 88.3402 19.42C92.5402 19.42 95.4502 20.77 95.4502 23.92ZM91.0702 29.83V28.12C90.5902 28.57 89.6902 28.72 89.1802 28.81L87.5902 29.05C85.7602 29.32 84.7702 29.89 84.7702 31.21C84.7702 32.2 85.7002 33.01 87.2002 33.01C89.6002 33.01 91.0702 31.45 91.0702 29.83ZM102.24 21.07L105.06 31.3H105.12L107.79 21.37C108.09 20.26 108.69 19.42 109.89 19.42C111.63 19.42 112.14 20.86 112.14 21.4C112.14 21.76 112.02 22.21 111.81 22.78L106.74 37.15C105.69 40.15 104.49 41.71 101.73 41.71C99.78 41.71 98.97 40.75 98.97 39.7C98.97 38.53 99.81 37.93 100.98 37.93H101.43C102 37.93 102.63 37.9 102.96 36.55L98.4 23.56C98.04 22.51 97.86 22.03 97.86 21.52C97.86 20.32 98.82 19.42 99.99 19.42C101.16 19.42 101.97 20.08 102.24 21.07ZM114.9 33.43V16.78C114.9 14.59 116.04 13.9 117.78 13.9H128.61C130.05 13.9 131.1 14.32 131.1 15.88C131.1 17.44 130.05 17.86 128.61 17.86H119.82V22.9H127.26C128.55 22.9 129.57 23.26 129.57 24.79C129.57 26.32 128.55 26.68 127.26 26.68H119.82V33.43C119.82 34.9 118.86 35.89 117.36 35.89C115.86 35.89 114.9 34.9 114.9 33.43ZM146.046 23.92V31.27C146.046 33.1 146.496 33.52 146.496 34.21C146.496 35.2 145.566 35.89 144.516 35.89C142.626 35.89 141.996 34.69 141.936 33.34C140.226 35.23 138.246 35.89 135.936 35.89C133.446 35.89 130.986 34.18 130.986 31.42C130.986 27.79 133.746 26.77 137.106 26.38L139.776 26.08C140.826 25.96 141.666 25.72 141.666 24.46C141.666 23.2 140.376 22.66 138.906 22.66C135.666 22.66 135.576 25.06 133.836 25.06C132.726 25.06 131.976 24.28 131.976 23.38C131.976 21.64 134.436 19.42 138.936 19.42C143.136 19.42 146.046 20.77 146.046 23.92ZM141.666 29.83V28.12C141.186 28.57 140.286 28.72 139.776 28.81L138.186 29.05C136.356 29.32 135.366 29.89 135.366 31.21C135.366 32.2 136.296 33.01 137.796 33.01C140.196 33.01 141.666 31.45 141.666 29.83ZM150.076 33.7V21.46C150.076 20.14 150.946 19.42 152.056 19.42C153.166 19.42 154.036 20.14 154.036 21.46V23.14H154.096C154.606 21.31 155.596 19.42 157.726 19.42C159.106 19.42 160.126 20.32 160.126 21.55C160.126 23.17 159.046 23.74 157.966 23.74H157.186C155.416 23.74 154.456 24.97 154.456 28.6V33.7C154.456 34.87 153.976 35.89 152.266 35.89C150.556 35.89 150.076 34.87 150.076 33.7ZM175.321 28.48H165.421C165.421 30.79 166.921 32.47 169.471 32.47C172.771 32.47 172.771 30.31 174.541 30.31C175.591 30.31 176.341 31.21 176.341 32.02C176.341 34.66 172.111 35.89 169.471 35.89C163.351 35.89 161.041 31.75 161.041 27.94C161.041 22.84 164.131 19.42 169.321 19.42C174.361 19.42 177.241 22.99 177.241 26.59C177.241 28.09 176.791 28.48 175.321 28.48ZM165.421 25.96H173.101C172.861 23.95 171.361 22.48 169.411 22.48C167.221 22.48 165.901 23.83 165.421 25.96Z" fill="white"/>
</svg>
