<svg width="64" height="64" viewBox="0 0 64 64" fill="none" xmlns="http://www.w3.org/2000/svg">
<path d="M47.1778 52.5034C44.5689 52.5034 42.2535 51.8186 40.2316 50.4489C38.2097 49.0792 36.6117 47.2204 35.4377 44.8724C34.2637 42.5243 33.6767 39.9154 33.6767 37.0456C33.6767 32.3496 35.2094 27.7513 38.2749 23.251C41.4056 18.6854 45.8082 14.935 51.4825 12L62.44 17.8701C58.7223 19.6963 55.559 21.8161 52.9501 24.2293C50.4064 26.6426 48.678 29.4797 47.7648 32.7409C50.8303 33.0018 53.3088 33.9475 55.2003 35.5781C57.1569 37.1434 58.1353 39.3284 58.1353 42.133C58.1353 44.9376 57.1243 47.3834 55.1024 49.4706C53.1457 51.4925 50.5042 52.5034 47.1778 52.5034ZM14.5011 52.5034C11.8922 52.5034 9.57682 51.8186 7.55491 50.4489C5.53299 49.0792 3.93503 47.2204 2.76102 44.8724C1.58701 42.5243 1 39.9154 1 37.0456C1 32.3496 2.53274 27.7513 5.59822 23.251C8.72892 18.6854 13.1315 14.935 18.8059 12L29.7633 17.8701C26.0456 19.6963 22.8823 21.8161 20.2734 24.2293C17.7297 26.6426 16.0013 29.4797 15.0882 32.7409C18.1536 33.0018 20.6321 33.9475 22.5236 35.5781C24.4803 37.1434 25.4586 39.3284 25.4586 42.133C25.4586 44.9376 24.4476 47.3834 22.4257 49.4706C20.469 51.4925 17.8275 52.5034 14.5011 52.5034Z" fill="black" fill-opacity="0.1"/>
</svg>
